<svg xmlns="http://www.w3.org/2000/svg" xmlns:xlink="http://www.w3.org/1999/xlink" width="308.835" height="482.028" viewBox="0 0 308.835 482.028"><defs><linearGradient id="a" x1="-1.642" y1="0.16" x2="-0.241" y2="0.597" gradientUnits="objectBoundingBox"><stop offset="0" stop-color="#0ef2cb"/><stop offset="1" stop-color="#00ccb0"/></linearGradient></defs><g transform="translate(-101.582 -14.987)"><path d="M410.02,275.895l-5.31-78.57L396.2,71.345l-.1-1a9.556,9.556,0,0,0-2.64-5.74l-45.89-47.5a6.849,6.849,0,0,0-10.349,8.94l37.569,48.7a.745.745,0,0,1,.17.49l-1.54,22.71L369.97,71.5l-.16-.99a9.629,9.629,0,0,0-2.99-5.57L318.049,20.4a6.845,6.845,0,0,0-9.769,9.56l40.53,46.271a.752.752,0,0,1,.2.479l-1.05,201.1c-.03,5.67.22,11.4.74,17.039l17.09,184.881a19.023,19.023,0,0,0,18.99,17.279c.29,0,.579-.01.87-.02h.05c.1,0,.21,0,.31-.01a19.03,19.03,0,0,0,18.79-18.49l2.921-97.83h.01l2.609-87.73v-.01C410.51,287.273,410.4,281.534,410.02,275.895ZM398.2,249.324h-25l.489-7.33H397.7Zm1.15,17.01.021.33H372.02l.5-7.34h26.35Zm-.82,86.99H372.859l-.219-7.33h26.109Zm.52-17.33H372.341l-.22-7.33h27.15l-.09,2.9Zm-.29-17.33H371.82l-.221-7.34H399.79l-.22,7.34Zm-.56-17.34H371.31l-.221-7.33H400.3l-.21,7.33Zm2.159-17.33H371.02c.021-.609.03-1.23.051-1.84.02-.381.029-.75.039-1.131s.031-.729.051-1.09c.02-.479.04-.959.08-1.439.029-.609.07-1.221.109-1.83h28.7c.06.88.11,1.76.15,2.65.03.66.06,1.32.09,1.99.01.279.021.569.03.85C400.34,282.773,400.35,283.385,400.359,283.994Zm-9.439-52H374.37l.08-1.16.42-6.17h21.661l.5,7.33Zm-2.26-17.33H375.54l.5-7.34h19.319l.5,7.34Zm-15.5,148.66h25.071l-.211,7.34H373.381Zm9.55-294.69-2.95-3.82,6.4,6.62.061.65,8.469,125.24H376.71l3.31-48.84,4.92-72.6A10.815,10.815,0,0,0,382.71,68.634Zm-24.06,225.3c-.49-5.31-.721-10.72-.69-16.069l1.05-201.13a10.745,10.745,0,0,0-2.67-7.09l-3.18-3.63,6.8,6.21.1.64,9.92,75.96-3.291,48.5-.42,6.22-4.9,72.341c-.33,4.909-.46,9.9-.37,14.829.01.74.03,1.48.05,2.22l1.181,39.75Zm27.05,193.06h-.17a9.073,9.073,0,0,1-8.94-8.79l-2.92-97.54h24.051l-2.91,97.52A9.084,9.084,0,0,1,385.7,486.994Z" fill="url(#a)"/><path d="M193.582,60.99a46,46,0,1,0-51,45.724v98.242h-5.561a5,5,0,0,0-4.929,4.159l-5.439,31.9a4.909,4.909,0,0,0-.063.763c0,.026-.008.051-.008.078v234a21,21,0,1,0,42,0v-234c0-.026-.007-.051-.008-.078a5.034,5.034,0,0,0-.063-.763l-5.439-31.9a5,5,0,0,0-4.929-4.159h-5.561V106.712A46.059,46.059,0,0,0,193.582,60.99Zm-35,399h-22V246.849h22Zm0,15.86a11,11,0,0,1-22,0v-5.859h22Zm-.925-239h-20.15l3.734-21.894h12.683ZM111.582,60.99a36,36,0,1,1,36,36A36.04,36.04,0,0,1,111.582,60.99Z" fill="url(#a)"/><path d="M291.641,60.99a46,46,0,0,0-75.407-35.374,5,5,0,1,0,6.4,7.687,36,36,0,1,1,23.01,63.687,5,5,0,0,0-5,5V204.955H235.08a5,5,0,0,0-4.929,4.159l-5.439,31.9a4.909,4.909,0,0,0-.063.763c0,.026-.008.051-.008.078v234a21,21,0,0,0,42,0v-234c0-.026-.008-.051-.008-.078a5.035,5.035,0,0,0-.064-.763l-5.439-31.9a5,5,0,0,0-4.928-4.159h-5.561V106.712A46.061,46.061,0,0,0,291.641,60.99Zm-35,399h-22V246.849h22Zm0,15.86a11,11,0,0,1-22,0v-5.859h22Zm-.926-239h-20.15l3.734-21.894h12.683Z" transform="translate(7)" fill="url(#a)"/></g></svg>