<svg xmlns="http://www.w3.org/2000/svg" xmlns:xlink="http://www.w3.org/1999/xlink" width="389.644" height="477.594" viewBox="0 0 389.644 477.594"><defs><linearGradient id="a" x1="0.062" y1="0.038" x2="0.798" y2="1" gradientUnits="objectBoundingBox"><stop offset="0" stop-color="#0ef2cb"/><stop offset="1" stop-color="#00ccb0"/></linearGradient></defs><g transform="translate(-106.891 -184.422)"><path d="M465.053,197.016a14.061,14.061,0,0,1-1.5-.079c-9.694-1.057-15.359-3.445-19.553-8.24-.251-.305-.5-.6-.736-.872a20.6,20.6,0,0,1-2.734-8.748c-2.722-35.518-10.915-77.24-21.383-108.885-11.482-34.714-25.167-55.438-36.608-55.438s-25.124,20.725-36.607,55.44c-10.469,31.652-18.662,73.375-21.383,108.887a20.369,20.369,0,0,1-1.882,7.127c-.321.369-.62.723-.889,1.05-4.489,5.13-10.548,7.683-20.912,8.813a15.069,15.069,0,0,1-1.61.085c-5.308,0-11.442-2.63-15.654-4.837-2.387-1.252-4.417-2.5-5.7-3.325h.037a44.23,44.23,0,0,1-14.261-23.3L201.466-95.429a162.737,162.737,0,0,1-4.238-28.986,150.6,150.6,0,0,1,1.052-27.974,131.364,131.364,0,0,1,6.093-25.867,108.868,108.868,0,0,1,10.885-22.663l9.159,4.294a104.422,104.422,0,0,0-13.924,33.382c-4.862,20.594-4.62,43.237.7,65.482l62.221,260.123c3.491,14.608,16.775,25.624,30.9,25.624h.118a10.352,10.352,0,0,0,10.15-9.671c2.777-36.264,11.153-78.9,21.859-111.264,13.67-41.339,29.18-62.3,46.1-62.3s32.427,20.961,46.1,62.3c10.7,32.359,19.081,74.992,21.859,111.262a10.355,10.355,0,0,0,10.137,9.677h.134c14.122,0,27.406-11.016,30.9-25.625L508.211,93.2l2.747-6.127,11.75-15.233,1-.437-22.312,93.3a44.213,44.213,0,0,1-14.2,23.244l-.085.031-.006,0a68.04,68.04,0,0,1-7.418,4.519C475.754,194.557,470.018,197.016,465.053,197.016ZM526.7,58.872h0l-3.994-1.4-5.117-3.5L553.88-97.761c5.318-22.238,5.558-44.881.692-65.482-4.634-19.617-13.5-36.034-25.648-47.477-7.906-7.452-21.151-16.336-39.353-16.336a64.721,64.721,0,0,0-18.734,2.914l-40.473,12.268a161.855,161.855,0,0,1-47.829,7.221,161.863,161.863,0,0,1-47.829-7.221l-40.478-12.268a64.706,64.706,0,0,0-18.733-2.914,54.877,54.877,0,0,0-7.243.479l-6.5-8.938a65.658,65.658,0,0,1,13.909-1.48A74.091,74.091,0,0,1,297.13-233.7l40.477,12.263a152.067,152.067,0,0,0,44.927,6.782,152.055,152.055,0,0,0,44.926-6.782l40.475-12.269A74.131,74.131,0,0,1,489.408-237a64.778,64.778,0,0,1,24.6,4.8A70.815,70.815,0,0,1,535.784-218c28.321,26.689,39.241,74.8,27.821,122.566ZM523.951-62.221a5.04,5.04,0,0,1-1.167-.139,4.97,4.97,0,0,1-3.1-2.247,4.959,4.959,0,0,1-.6-3.778l8.527-35.658c5.176-21.659,4.536-43.613-1.8-61.818a4.977,4.977,0,0,1,.22-3.821,4.962,4.962,0,0,1,2.859-2.544,4.946,4.946,0,0,1,1.647-.28,5.011,5.011,0,0,1,2.175.5,4.961,4.961,0,0,1,2.547,2.86c6.957,19.99,7.695,43.938,2.076,67.431l-8.528,35.658A4.983,4.983,0,0,1,523.951-62.221Zm-7.344-124.648a5.014,5.014,0,0,1-3.716-1.653c-6.4-7.1-13.709-10.948-21.715-11.422a4.973,4.973,0,0,1-3.443-1.671,4.966,4.966,0,0,1-1.253-3.616,5,5,0,0,1,4.985-4.7c.114,0,.215,0,.3.009,10.724.634,20.331,5.583,28.555,14.711a4.965,4.965,0,0,1,1.279,3.607,4.968,4.968,0,0,1-1.647,3.455A4.994,4.994,0,0,1,516.607-186.869Z" transform="translate(-71.535 465)" fill="url(#a)"/><path d="M520.366,152.911c-5.9-30.745-9.678-34.522-40.423-40.422a3.627,3.627,0,0,1,0-7.124c30.745-5.9,34.522-9.677,40.423-40.422a3.626,3.626,0,0,1,7.122,0c5.9,30.745,9.678,34.522,40.423,40.422a3.627,3.627,0,0,1,0,7.124c-30.745,5.9-34.522,9.677-40.423,40.422a3.626,3.626,0,0,1-7.122,0ZM496.8,108.928c15.949,4.64,22.488,11.179,27.128,27.129,4.64-15.95,11.18-22.488,27.129-27.129-15.949-4.64-22.488-11.179-27.129-27.129C519.286,97.748,512.747,104.288,496.8,108.928ZM261.036-102.756c-8.713-45.4-14.291-50.977-59.69-59.689A5.357,5.357,0,0,1,197-167.7a5.356,5.356,0,0,1,4.346-5.26c45.4-8.711,50.978-14.289,59.69-59.689A5.354,5.354,0,0,1,266.295-237a5.355,5.355,0,0,1,5.259,4.346c8.713,45.4,14.29,50.978,59.689,59.689a5.356,5.356,0,0,1,4.346,5.26,5.356,5.356,0,0,1-4.346,5.26c-45.4,8.712-50.978,14.289-59.689,59.689a5.355,5.355,0,0,1-5.259,4.347A5.355,5.355,0,0,1,261.036-102.756Zm-34.8-64.948c23.551,6.853,33.207,16.508,40.059,40.06,6.851-23.552,16.508-33.207,40.059-40.06-23.551-6.853-33.208-16.508-40.059-40.06C259.443-184.212,249.787-174.556,226.236-167.7Z" transform="translate(-90.11 421.422)" fill="#66ceb9"/></g></svg>