<svg xmlns="http://www.w3.org/2000/svg" xmlns:xlink="http://www.w3.org/1999/xlink" width="275.212" height="477.231" viewBox="0 0 275.212 477.231"><defs><linearGradient id="a" x1="0.057" y1="0.032" x2="0.667" y2="0.61" gradientUnits="objectBoundingBox"><stop offset="0" stop-color="#0ef2cb"/><stop offset="1" stop-color="#00ccb0"/></linearGradient></defs><path d="M368.108,29.317c-14.145-13.33-32.291-17.536-51.1-11.84h0l-29.742,9.015a110.573,110.573,0,0,1-65.285,0L192.24,17.477c-18.808-5.7-36.954-1.49-51.1,11.84C120,49.237,111.835,85.068,120.332,120.6l12.376,51.748a23.225,23.225,0,0,0,22.66,17.88h18.118v25.3a20.917,20.917,0,0,0,20.894,20.893h5.652V286.5l-7.348,2.111a4.951,4.951,0,1,0,2.735,9.517l4.613-1.325v21.04l-7.348,2.112a4.951,4.951,0,1,0,2.735,9.517l4.613-1.326v21.041l-7.348,2.111a4.951,4.951,0,1,0,2.735,9.517l4.613-1.326v21.041l-7.348,2.111a4.951,4.951,0,1,0,2.735,9.517l4.613-1.325v21.04l-7.348,2.112a4.951,4.951,0,1,0,2.735,9.517l4.613-1.327v14.6a29.756,29.756,0,0,0,8.425,20.807L233.2,483.135a29.664,29.664,0,0,0,21.452,9.1h.029a29.665,29.665,0,0,0,21.439-9.057L300.989,457.6a29.749,29.749,0,0,0,8.464-20.848V390.734l7.348-2.111a4.951,4.951,0,1,0-2.735-9.517l-4.613,1.325v-21.04l7.348-2.112a4.951,4.951,0,0,0-2.735-9.517l-4.613,1.326v-21.04l7.348-2.112a4.951,4.951,0,0,0-2.735-9.517l-4.613,1.326V296.7l7.348-2.111a4.951,4.951,0,1,0-2.735-9.517l-4.613,1.325v-21.04l7.348-2.112a4.951,4.951,0,0,0-2.735-9.517l-4.613,1.327V236.427h5.417a20.917,20.917,0,0,0,20.894-20.893v-25.3h18.118a23.225,23.225,0,0,0,22.66-17.88L388.919,120.6C397.414,85.068,389.246,49.237,368.108,29.317ZM299.552,436.748a19.9,19.9,0,0,1-5.662,13.945l-24.866,25.575a19.842,19.842,0,0,1-14.34,6.058h-.02a19.84,19.84,0,0,1-14.35-6.086l-24.746-25.546a19.908,19.908,0,0,1-5.636-13.919V419.326l89.62-25.753v43.174Zm0-53.476-89.62,25.753V387.984l89.62-25.753Zm0-31.342-89.62,25.752v-21.04l89.62-25.753Zm0-31.343-89.62,25.753V325.3l89.62-25.753Zm0-31.343L209.932,315V293.957l89.62-25.753Zm0-31.342-89.62,25.753V236.425h89.62Zm26.31-42.371a11,11,0,0,1-10.993,10.992H194.378a11,11,0,0,1-10.993-10.992v-25.3H325.861v25.3ZM379.286,118.3,366.91,170.049a13.354,13.354,0,0,1-13.03,10.282H155.368a13.354,13.354,0,0,1-13.03-10.282L129.962,118.3c-7.57-31.651-.349-64.516,17.968-81.777,6.114-5.761,15.45-11.649,28.069-11.649a45.983,45.983,0,0,1,13.369,2.079l29.74,9.014a120.289,120.289,0,0,0,71.031,0l29.74-9.014c19.571-5.926,33.336,1.933,41.44,9.569C379.635,53.784,386.857,86.648,379.286,118.3Z" transform="translate(-117.019 -15.001)" fill="url(#a)"/></svg>