<svg xmlns="http://www.w3.org/2000/svg" xmlns:xlink="http://www.w3.org/1999/xlink" width="334.48" height="482" viewBox="0 0 334.48 482"><defs><linearGradient id="a" x1="0.072" y1="0.148" x2="0.84" y2="0.766" gradientUnits="objectBoundingBox"><stop offset="0" stop-color="#0ef2cb"/><stop offset="1" stop-color="#00ccb0"/></linearGradient></defs><g transform="translate(-88.76 -15)"><path d="M423.24,462.03V445.689c0-1.049-.01-2.1-.04-3.149-.021-.91-.05-1.82-.091-2.72-.029-.69-.06-1.381-.109-2.07-.01-.43-.04-.859-.08-1.28-.05-.81-.11-1.61-.18-2.42s-.15-1.64-.23-2.46a134.645,134.645,0,0,0-25-65.54c-.45-.62-.91-1.239-1.37-1.86-.5-.659-.989-1.31-1.5-1.959-.54-.7-1.1-1.4-1.659-2.09-.051-.061-.1-.131-.15-.19-.11-.13-.21-.261-.32-.39-.479-.591-.97-1.17-1.47-1.75-.55-.67-1.12-1.33-1.7-1.98-.32-.37-.64-.73-.98-1.09-1.01-1.141-2.06-2.26-3.129-3.37-.121-.13-.24-.25-.36-.38-.54-.561-1.09-1.11-1.65-1.66-.67-.67-1.35-1.34-2.04-1.99-.57-.54-1.14-1.08-1.71-1.609-.59-.541-1.18-1.08-1.78-1.61-.52-.47-1.05-.92-1.569-1.38a135.343,135.343,0,0,0-79.56-32.79v-33.96a106.552,106.552,0,0,0,54.229-50.51c.37-.73.729-1.471,1.08-2.211.729-1.51,1.41-3.05,2.05-4.6.32-.779.64-1.561.939-2.34s.6-1.57.891-2.36c.21-.59.42-1.18.62-1.78.149-.409.29-.83.42-1.25.16-.489.319-.979.47-1.47.13-.42.26-.829.38-1.25.44-1.46.841-2.939,1.21-4.42.12-.45.23-.9.33-1.36q.18-.719.33-1.439c.061-.24.11-.48.16-.73.12-.569.24-1.129.35-1.7a103.9,103.9,0,0,0,1.65-11.75c.03-.26.05-.53.07-.79,11.51-2.37,20.229-13.341,20.229-26.46,0-13.021-8.569-23.91-19.93-26.41v-11.75h10.03a4.994,4.994,0,0,0,4.979-5.471l-7.29-77.409A25.866,25.866,0,0,0,343.91,15H168.09a25.865,25.865,0,0,0-25.85,23.53l-7.29,77.409a4.994,4.994,0,0,0,4.979,5.471h10.03v11.75c-11.36,2.5-19.93,13.39-19.93,26.41,0,13.119,8.72,24.09,20.229,26.46.021.26.04.53.07.79a104.135,104.135,0,0,0,1.65,11.75c.109.57.229,1.13.35,1.7.05.25.1.49.16.73q.15.72.33,1.439c.1.461.21.91.33,1.36.369,1.48.77,2.96,1.209,4.42.121.421.25.83.381,1.25.149.49.31.98.47,1.47.13.42.271.841.42,1.25.2.6.41,1.19.62,1.78.29.79.59,1.58.89,2.36s.62,1.561.94,2.34c.64,1.55,1.32,3.09,2.05,4.6.351.74.71,1.48,1.08,2.211a106.564,106.564,0,0,0,54.229,50.51v33.96a135.343,135.343,0,0,0-79.56,32.79c-.521.46-1.05.91-1.569,1.38-.6.53-1.19,1.069-1.78,1.61-.57.529-1.141,1.069-1.71,1.609-.69.65-1.37,1.32-2.04,1.99-.561.55-1.11,1.1-1.65,1.66-.12.13-.24.25-.36.38-1.069,1.11-2.119,2.229-3.13,3.37-.34.359-.659.72-.979,1.09-.58.65-1.15,1.311-1.7,1.98-.5.58-.99,1.159-1.47,1.75-.11.129-.21.26-.32.39-.05.06-.1.13-.15.19-.56.689-1.119,1.39-1.66,2.09-.51.649-1,1.3-1.5,1.959-.459.621-.92,1.24-1.369,1.86a134.652,134.652,0,0,0-25,65.54c-.08.82-.16,1.641-.23,2.46s-.13,1.61-.18,2.42c-.04.421-.07.851-.08,1.28-.05.689-.08,1.38-.11,2.07-.04.9-.069,1.81-.09,2.72-.03,1.05-.04,2.1-.04,3.149V492a5,5,0,0,0,5,5H418.24a5,5,0,0,0,5-5V462.033S423.24,462.031,423.24,462.03ZM377.02,357.28c.36.35.7.7,1.04,1.06.37.38.74.76,1.08,1.15.36.359.69.72,1.021,1.09,1.13,1.23,2.229,2.48,3.31,3.75.48.57.96,1.15,1.44,1.73.05.069.109.129.16.2.039.051.09.11.13.16.489.59.96,1.18,1.42,1.78.06.09.13.17.2.26q1.44,1.86,2.81,3.76a.01.01,0,0,0,.01.011l1.23,1.739a126.5,126.5,0,0,1,21.91,61.021c.069.79.13,1.57.18,2.359.021.311.04.61.06.92.04.61.07,1.211.09,1.82.041.88.07,1.76.091,2.65.03.979.04,1.96.04,2.949v11.341h-51.2V410.27a5,5,0,0,0-10,0V487H261V365.561c12.52-4.6,50.87-20.271,58.39-41.771a126.34,126.34,0,0,1,49.456,25.915c.609.52,1.224,1.031,1.824,1.564q.525.436,1.02.9c.49.439.971.88,1.45,1.33.3.27.6.55.9.85.43.391.86.811,1.29,1.23C375.9,356.15,376.47,356.71,377.02,357.28Zm-5.05-197.71c0,7.359-4.149,13.64-9.93,15.979v-31.97C367.82,145.92,371.97,152.21,371.97,159.57Zm-231.94,0c0-7.36,4.149-13.65,9.93-15.99v31.97C144.18,173.21,140.03,166.93,140.03,159.57Zm20.5,28.84c-.07-.52-.12-1.061-.16-1.58-.011-.1-.021-.21-.03-.311h137.7a5,5,0,0,0,0-10H159.96V121.41h16.37a5,5,0,0,0,0-10H145.42l6.78-71.94A15.9,15.9,0,0,1,168.09,25H343.91A15.9,15.9,0,0,1,359.8,39.47l6.78,71.94H198.68a5,5,0,0,0,0,10H352.04v55.109H327a5,5,0,0,0,0,10h24.66c-.01.1-.021.211-.03.311-.04.52-.09,1.061-.16,1.58-.08.8-.18,1.59-.29,2.38q-.57,4.26-1.51,8.42c-.16.69-.32,1.38-.49,2.07s-.34,1.38-.54,2.06c-.2.721-.4,1.43-.62,2.141-.149.529-.31,1.05-.489,1.569-.05.181-.11.36-.171.54-.149.5-.31.99-.489,1.48-.1.289-.2.58-.311.869-.159.5-.34.99-.529,1.48q-.75,2-1.57,3.939c-.26.66-.55,1.3-.851,1.951a97.381,97.381,0,0,1-47.048,47.72,90.031,90.031,0,0,1-10,4.02c-1.8.61-3.61,1.17-5.451,1.67q-3.314.9-6.7,1.561c-2.25.439-4.53.8-6.82,1.079-.65.08-1.32.16-1.97.211-.24.029-.49.06-.74.08-.51.05-1.021.09-1.53.13-.8.06-1.6.11-2.41.149-.26.021-.52.03-.789.04-.351.021-.711.03-1.061.03-.46.02-.92.03-1.38.04-.57.01-1.14.021-1.71.021s-1.141-.011-1.71-.021c-.46-.01-.92-.021-1.38-.04-.35,0-.71-.01-1.061-.03-.27-.01-.529-.02-.789-.04-.811-.039-1.61-.09-2.41-.149-.511-.04-1.021-.08-1.53-.13-.25-.021-.5-.051-.74-.08-.649-.051-1.319-.131-1.97-.211-2.29-.279-4.57-.64-6.82-1.079s-4.49-.96-6.7-1.561c-1.84-.5-3.649-1.06-5.45-1.67a89.848,89.848,0,0,1-10-4.02,97.388,97.388,0,0,1-47.049-47.72c-.3-.65-.59-1.291-.85-1.951-.55-1.3-1.07-2.609-1.57-3.939-.189-.49-.37-.98-.53-1.48-.109-.289-.209-.58-.31-.869-.18-.49-.34-.98-.49-1.48-.06-.18-.12-.359-.17-.54-.18-.52-.34-1.04-.489-1.569-.221-.711-.42-1.42-.621-2.141-.2-.68-.379-1.37-.539-2.06s-.33-1.38-.49-2.07q-.945-4.156-1.51-8.42C160.71,190,160.609,189.21,160.53,188.41ZM220.609,319.7a5,5,0,0,0,4.83-5V279.57c.131.039.261.08.391.109q1.215.36,2.43.69,2.43.675,4.9,1.21c1.07.23,2.15.45,3.229.65.591.119,1.181.22,1.771.319.84.15,1.67.28,2.51.4,1.54.229,3.08.42,4.641.569.56.061,1.109.11,1.67.15,1.18.11,2.369.189,3.569.25.29.02.58.03.87.04,1.52.07,3.05.1,4.58.1s3.061-.03,4.58-.1c.29-.01.58-.021.87-.04,1.2-.061,2.39-.14,3.569-.25.561-.04,1.11-.09,1.67-.15,1.561-.149,3.1-.34,4.641-.569.84-.12,1.67-.25,2.51-.4.59-.1,1.18-.2,1.77-.319,1.08-.2,2.16-.42,3.23-.65q2.475-.54,4.9-1.21,1.215-.33,2.43-.69c.13-.029.26-.07.391-.109V314.7a5,5,0,0,0,4.829,5,127.2,127.2,0,0,1,18.141,1.9c-6.03,13.971-34.33,28.36-53.511,35.141a207.256,207.256,0,0,1-26.8-12.03c-14.38-7.86-23.649-15.9-26.75-23.11A127.033,127.033,0,0,1,220.609,319.7Zm-98.25,52.53a.011.011,0,0,0,.011-.011q1.365-1.9,2.81-3.76c.07-.09.141-.17.2-.26.46-.6.931-1.19,1.42-1.78.04-.05.09-.109.13-.16.051-.07.11-.13.16-.2.48-.58.96-1.16,1.44-1.73q1.618-1.9,3.31-3.75c.33-.37.66-.73,1.02-1.09.341-.391.711-.771,1.08-1.15.341-.359.681-.71,1.041-1.06.55-.57,1.119-1.13,1.689-1.7.43-.42.86-.84,1.29-1.23.3-.3.6-.58.9-.85.48-.45.961-.891,1.451-1.33.329-.311.67-.609,1.02-.9.6-.533,1.215-1.045,1.824-1.564a126.343,126.343,0,0,1,49.455-25.915c7.521,21.5,45.871,37.17,58.391,41.771V487H159.96V410.27a5,5,0,1,0-10,0v46.761H98.76V445.69c0-.989.01-1.97.04-2.949.021-.891.05-1.771.09-2.65.021-.609.05-1.21.1-1.82.01-.31.029-.609.05-.92.05-.789.11-1.569.18-2.359a126.505,126.505,0,0,1,21.91-61.021Q121.745,373.1,122.359,372.23Zm-23.6,94.8h51.2V487H98.76V467.03ZM362.04,487V467.03h51.2V487Z" fill="url(#a)"/><path d="M331.59,435.63H281.62a5,5,0,0,0,0,10h49.97a5,5,0,0,0,0-10Z" fill="url(#a)"/><path d="M205.4,211.333H306.6a5,5,0,0,0,0-10H205.4a5,5,0,0,0,0,10Z" fill="url(#a)"/><path d="M295.688,219.921H216.313a5,5,0,0,0,0,10h79.375a5,5,0,0,0,0-10Z" fill="url(#a)"/><path d="M277.23,238.51H234.77a5,5,0,0,0,0,10h42.461a5,5,0,1,0,0-10Z" fill="url(#a)"/><circle cx="8.564" cy="8.564" r="8.564" transform="translate(196.833 142.436)" fill="url(#a)"/><circle cx="8.565" cy="8.565" r="8.565" transform="translate(298.04 142.435)" fill="url(#a)"/></g></svg>