<svg xmlns="http://www.w3.org/2000/svg" xmlns:xlink="http://www.w3.org/1999/xlink" width="503.464" height="411.734" viewBox="0 0 503.464 411.734"><defs><linearGradient id="a" x1="0.368" y1="0.115" x2="0.653" y2="0.545" gradientUnits="objectBoundingBox"><stop offset="0" stop-color="#0ef2cb"/><stop offset="1" stop-color="#00ccb0"/></linearGradient></defs><g transform="translate(-4.25 -15.25)"><path d="M71.153-67.055H53.681A43.809,43.809,0,0,1,10-110.735V-294.2a43.809,43.809,0,0,1,43.682-43.681H154.148V-320.4H53.681A26.286,26.286,0,0,0,27.472-294.2v183.461A26.286,26.286,0,0,0,53.681-84.526H88.626v47.175l56.786-43.681,4.369-3.494H311.4a26.286,26.286,0,0,0,26.209-26.209v-17.473h17.473v17.473A43.809,43.809,0,0,1,311.4-67.055h-155.5L71.153-1.533Zm290.916-69.889h-155.5a43.809,43.809,0,0,1-43.681-43.681V-364.085a43.809,43.809,0,0,1,43.681-43.681H464.283a43.809,43.809,0,0,1,43.681,43.681v183.461a43.809,43.809,0,0,1-43.681,43.681H446.81v65.522ZM180.356-364.085v183.461a26.285,26.285,0,0,0,26.208,26.208h161.62l4.368,3.932L429.338-106.8v-47.613h34.945a26.286,26.286,0,0,0,26.209-26.208V-364.085a26.287,26.287,0,0,0-26.209-26.209H206.564A26.286,26.286,0,0,0,180.356-364.085Z" transform="translate(-3 425.766)" stroke="#f9f9f9" stroke-linejoin="round" stroke-width="5.5" fill="url(#a)"/></g></svg>