<svg xmlns="http://www.w3.org/2000/svg" xmlns:xlink="http://www.w3.org/1999/xlink" width="482.007" height="233.219" viewBox="0 0 482.007 233.219"><defs><linearGradient id="a" x1="0.289" y1="0.165" x2="0.5" y2="1" gradientUnits="objectBoundingBox"><stop offset="0" stop-color="#0ef2cb"/><stop offset="1" stop-color="#00ccb0"/></linearGradient></defs><path d="M492,294.21h-3.61q-.578-6.107-1.359-11.649a41.947,41.947,0,0,0,3.93-15.11l5.94-85.8a41.549,41.549,0,0,0-10.7-31.17,33.758,33.758,0,0,0-24.811-11.09H50.61a33.754,33.754,0,0,0-24.81,11.09,41.545,41.545,0,0,0-10.7,31.17l5.94,85.8A41.554,41.554,0,0,0,25.8,284.19q-.654,4.8-1.156,10.021H20a5,5,0,0,0,0,10h3.858a387.923,387.923,0,0,0-.268,39.55,4.946,4.946,0,0,0,1.56,3.42c.98.94,10.52,9.35,41.68,16.65.14.029.3.061.45.08a199.682,199.682,0,0,0,25.13,1.609c12.67,0,27.42-1.359,37.32-6.59,6.53,3.35,24.02,10.42,59.66,13.66.15.01.3.02.46.02,2.01,0,47.18-.159,66.99-13.59,6.67,3.381,24.17,10.36,59.5,13.57.15.01.3.02.45.02,2.021,0,47.47-.159,67.19-13.719,9.89,4.92,24.239,6.219,36.609,6.219a199.851,199.851,0,0,0,25.13-1.609c.15-.02.3-.05.45-.08,31.15-7.311,40.7-15.72,41.68-16.65a5.011,5.011,0,0,0,1.561-3.42,387.093,387.093,0,0,0-.249-39.14H492a5,5,0,0,0,0-10Zm-33.01-.771V286.71a5.582,5.582,0,0,0-5.58-5.58h-1.44a5.584,5.584,0,0,0-5.59,5.58v6.19H421.83v-6.19a5.582,5.582,0,0,0-5.58-5.58h-1.439a5.585,5.585,0,0,0-5.591,5.58v7.5H391.492c.02-.159.039-.319.058-.479,4.79-37.84,14.5-62.87,28.13-72.471,7.6-5.35,16.471-5.909,27.131-1.71.05.021.029.011.079.03.28.12,21.61,9.21,29.771,61.22q.988,6.277,1.7,13.41H458.99Zm-114.17.291v-7.021a5.584,5.584,0,0,0-5.59-5.58H337.8a5.584,5.584,0,0,0-5.59,5.58v6.19H307.66v-6.19a5.584,5.584,0,0,0-5.59-5.58h-1.44a5.582,5.582,0,0,0-5.58,5.58v7.5H264.87c.021-.157.039-.323.06-.479,6.1-46.33,19.21-69.3,30.69-80.681,10.99-10.89,20.39-11.09,21.04-11.09h.13c10.96,0,20.271,4.09,28.45,12.49,17.08,17.54,25.4,50.12,29.439,79.28.022.16.041.318.063.479H344.82Zm-128.3,0v-7.021a5.591,5.591,0,0,0-5.59-5.58h-1.439a5.591,5.591,0,0,0-5.59,5.58v6.19h-24.54v-6.19a5.591,5.591,0,0,0-5.59-5.58h-1.44a5.584,5.584,0,0,0-5.59,5.58v7.5h-28.82c.021-.157.039-.323.06-.479,6.11-46.33,19.22-69.3,30.7-80.681,10.99-10.89,20.391-11.09,21.03-11.09h.14c10.95,0,20.26,4.09,28.45,12.49,17.08,17.54,25.4,50.12,29.43,79.28.022.16.041.318.063.479H216.52Zm-112.74,0v-7.021a5.584,5.584,0,0,0-5.59-5.58H96.75a5.591,5.591,0,0,0-5.59,5.58v6.19H66.62v-6.19a5.591,5.591,0,0,0-5.59-5.58H59.59a5.584,5.584,0,0,0-5.59,5.58v7.5H34.69q.632-6.367,1.51-12.06c8-52.51,29.35-61.931,29.9-62.15a.355.355,0,0,1,.09-.04c10.66-4.2,19.53-3.64,27.13,1.71,13.58,9.55,23.27,34.45,28.07,72.061.021.158.039.32.059.479H103.78ZM25.08,180.96a31.5,31.5,0,0,1,8.03-23.66,23.883,23.883,0,0,1,17.5-7.909H461.39a23.885,23.885,0,0,1,17.5,7.909,31.451,31.451,0,0,1,8.03,23.66l-5.25,75.92c-10.92-37.96-29.2-45.88-31.23-46.649-13.829-5.431-26.109-4.471-36.52,2.85-17.35,12.22-26.28,40.98-30.85,69.29-5.9-34.88-16.2-60.03-30.66-74.89-10.021-10.29-22-15.521-35.61-15.521-1.58-.01-14.1.34-27.63,13.41-17.939,17.34-27.73,46.81-32.81,78.39-5.87-35.6-16.24-61.229-30.89-76.279-10.03-10.29-22.01-15.521-35.61-15.521-1.6-.01-14.11.34-27.63,13.41-17.56,16.96-27.31,45.55-32.48,76.35-4.61-27.96-13.53-56.159-30.67-68.22-10.41-7.33-22.69-8.29-36.52-2.859-2.07.789-21.21,9.069-32.01,49.469Zm43.8,173.08c-21.85-5.149-31.93-10.761-35.39-13.05-.491-13.731-.306-25.934.385-36.78H54v7.5a5.584,5.584,0,0,0,5.59,5.58h1.44a5.591,5.591,0,0,0,5.59-5.58v-6.19H91.16v6.19a5.591,5.591,0,0,0,5.59,5.58h1.44a5.584,5.584,0,0,0,5.59-5.58v-7.5h18.775c1.619,16.558,1.965,31.486,1.994,40.38-.03,1.96-.05,3.891-.05,5.8C110.11,357.6,80.09,355.561,68.88,354.04Zm65.67-3.88c.021-1.7.04-4,.021-6.79.236-14.483,1-27.481,2.184-39.16h29.986v7.5a5.584,5.584,0,0,0,5.59,5.58h1.44a5.591,5.591,0,0,0,5.59-5.58v-6.19H203.9v6.19a5.591,5.591,0,0,0,5.59,5.58h1.439a5.591,5.591,0,0,0,5.59-5.58v-7.5h32.5a422.572,422.572,0,0,1,2.449,42.99c-.01,1.14-.02,2.27-.02,3.4-13.79,9.74-48.39,11.98-61.38,12.01C156.13,359.5,139.95,352.87,134.55,350.16Zm243.87.43c-13.79,9.75-48.41,11.99-61.41,12.02-33.979-3.109-50.16-9.76-55.529-12.459.01-1.061.02-2.391,0-3.95v-.04c.178-15.611.971-29.529,2.224-41.95h31.346v7.5a5.582,5.582,0,0,0,5.58,5.58h1.44a5.584,5.584,0,0,0,5.59-5.58v-6.19h24.55v6.19a5.584,5.584,0,0,0,5.59,5.58h1.431a5.584,5.584,0,0,0,5.59-5.58v-7.5h31.15c1.915,17.548,2.36,32.878,2.439,41.44,0,.39.01.77.01,1.14.01.64.01,1.239.01,1.79v.21C378.43,349.47,378.42,350.07,378.42,350.59Zm101.09-10.02c-3.51,2.32-13.6,7.93-35.39,13.06-11.23,1.521-41.29,3.56-55.66-3.67a439.874,439.874,0,0,1,1.935-45.75H409.22v7.5a5.585,5.585,0,0,0,5.591,5.58h1.439a5.582,5.582,0,0,0,5.58-5.58v-6.19h24.55v6.19a5.584,5.584,0,0,0,5.59,5.58h1.44a5.582,5.582,0,0,0,5.58-5.58v-7.5h20.164C479.823,314.946,480,327.012,479.51,340.57Z" transform="translate(-14.997 -139.391)" fill="url(#a)"/></svg>