<svg xmlns="http://www.w3.org/2000/svg" xmlns:xlink="http://www.w3.org/1999/xlink" width="311.074" height="448.907" viewBox="0 0 311.074 448.907"><defs><linearGradient id="a" x1="0.241" y1="0.134" x2="0.5" y2="0.397" gradientUnits="objectBoundingBox"><stop offset="0" stop-color="#0ef2cb"/><stop offset="1" stop-color="#00ccb0"/></linearGradient></defs><g transform="translate(-100.461 -26.002)"><path d="M-818.328-4.09a37.48,37.48,0,0,1-12.981-13.236A37.651,37.651,0,0,1-835.385-27.5l-18.337-76.674c-.344-1.429-.738-2.863-1.174-4.26l-8.206-35.095-.039-.033-12.149-50.8a29.077,29.077,0,0,1,5.485-24.913A29.073,29.073,0,0,1-846.851-230.4h18.567l6.3-41.207a22,22,0,0,1,21.871-18.781h82.154a5.006,5.006,0,0,1,5,5,5.006,5.006,0,0,1-5,5h-82.155A12.058,12.058,0,0,0-812.1-270.1l-6.066,39.7h165.413l-6.066-39.7a12.058,12.058,0,0,0-11.986-10.293h-17.154a5.005,5.005,0,0,1-5-5,5.005,5.005,0,0,1,5-5h17.155a22,22,0,0,1,21.872,18.781l6.3,41.207h18.567a29.072,29.072,0,0,1,22.954,11.127,29.074,29.074,0,0,1,5.484,24.913l-15.305,64q.115-.139.232-.275l0-.006.064-.075-8,34.126c-.84,2.477-1.576,5.025-2.188,7.572L-635.539-27.5c-.124.515-.259,1.028-.4,1.525a37.617,37.617,0,0,1-5.032,10.81,37.553,37.553,0,0,1-7.907,8.506A35.809,35.809,0,0,1-658.89-1.089a33.4,33.4,0,0,1-11.339,2h-.243A17.169,17.169,0,0,1-679.6-1.8a18.145,18.145,0,0,1-6.373-6.983,17.781,17.781,0,0,1-1.961-6.843c-2.263-29.554-9.08-64.27-17.789-90.6-9.455-28.589-20.571-45.656-29.734-45.656s-20.28,17.068-29.735,45.658c-8.709,26.33-15.526,61.048-17.789,90.6a18.006,18.006,0,0,1-5,11.1A17.681,17.681,0,0,1-798.739.8l-.051.008-.031.005-.02,0c-.234.024-.475.034-.708.043l-.049,0-.283.012c-.082,0-.164.009-.255.015l-.035,0c-.119.008-.241.016-.364.017h-.161A34.184,34.184,0,0,1-818.328-4.09Zm122.1-105.278c8.946,27.04,15.946,62.665,18.268,92.975a7.835,7.835,0,0,0,7.628,7.3h.1c.123,0,.247-.007.367-.014l.059,0c.08-.005.185-.013.29-.015l.209-.006h.019c.373-.012.759-.023,1.135-.059.259-.025.524-.065.773-.1l.094-.014.22-.032c.111-.016.221-.031.331-.045.213-.027.44-.058.658-.1.241-.044.491-.106.692-.157l.323-.078.286-.066.015,0c.266-.059.507-.114.746-.183.161-.045.319-.1.473-.151l.048-.016c.1-.033.188-.064.28-.094l.149-.048c.339-.107.722-.228,1.092-.368.1-.036.194-.079.285-.121l.013-.005c.069-.03.14-.06.208-.088.511-.208,1.009-.414,1.49-.647.032-.016.064-.032.094-.05l.009,0,.078-.041a27.721,27.721,0,0,0,14.526-18.217l14.694-61.441c0-.022.01-.043.016-.064s.007-.025.01-.038l25.187-105.324a19.127,19.127,0,0,0-3.608-16.393,19.129,19.129,0,0,0-15.1-7.322h-22.662l-.076,0h-.015c-.031,0-.068.005-.106.005H-823.993c-.037,0-.075,0-.105-.005h-.013l-.079,0h-22.662a19.131,19.131,0,0,0-15.1,7.322,19.136,19.136,0,0,0-3.608,16.393L-844-106.516c.006.026.013.053.021.079l18.323,76.615a27.2,27.2,0,0,0,3.486,8.222c4.889,7.715,13.118,12.507,21.478,12.507h.107a7.831,7.831,0,0,0,7.624-7.3c2.322-30.3,9.322-65.927,18.268-92.975,11.526-34.85,24.725-52.52,39.231-52.52S-707.756-144.215-696.231-109.367Zm-181.34-195.556a5,5,0,0,1-4.863-3.838l-4.823-20.159c-9.59-40.113-.391-80.543,23.437-103,15.881-14.969,36.263-19.695,57.385-13.3l33.752,10.23a126.023,126.023,0,0,0,74.438,0l33.752-10.231c21.121-6.393,41.5-1.67,57.388,13.3,23.828,22.457,33.026,62.887,23.437,103l-4.82,20.159a5,5,0,0,1-4.863,3.838Zm20.612-119.719c-20.94,19.737-29.206,57.27-20.568,93.4l3.9,16.322H-597.3l3.9-16.322c8.638-36.126.372-73.66-20.568-93.4-9.315-8.778-25.137-17.815-47.631-11.006l-33.747,10.229a135.84,135.84,0,0,1-80.242,0l-33.748-10.228a52.844,52.844,0,0,0-15.36-2.388C-839.2-438.035-849.932-431.265-856.959-424.642Z" transform="translate(991.461 474)" fill="url(#a)"/></g></svg>