<svg xmlns="http://www.w3.org/2000/svg" xmlns:xlink="http://www.w3.org/1999/xlink" width="480.42" height="245.745" viewBox="0 0 480.42 245.745"><defs><linearGradient id="a" x1="0.273" y1="-0.026" x2="0.589" y2="1" gradientUnits="objectBoundingBox"><stop offset="0" stop-color="#0ef2cb"/><stop offset="0.667" stop-color="#00cdb1"/><stop offset="1" stop-color="#00ccb0"/></linearGradient></defs><path d="M472.351,205.993H450.169l4.52-18.9c4.3-17.967.078-36.166-10.747-46.369a26.787,26.787,0,0,0-27.105-6.288l-14.289,4.331a50.541,50.541,0,0,1-29.839,0l-14.288-4.33a26.784,26.784,0,0,0-27.1,6.288,37.583,37.583,0,0,0-9.106,13.97,37.621,37.621,0,0,0-9.106-13.97A26.786,26.786,0,0,0,286,134.44l-14.29,4.331a50.522,50.522,0,0,1-29.838,0l-14.288-4.33a26.784,26.784,0,0,0-27.1,6.288,37.6,37.6,0,0,0-9.106,13.97,37.608,37.608,0,0,0-9.106-13.97,26.786,26.786,0,0,0-27.1-6.288l-14.29,4.331a50.541,50.541,0,0,1-29.839,0l-14.288-4.33a26.788,26.788,0,0,0-27.1,6.288C58.818,150.929,54.6,169.13,58.9,187.1l4.519,18.9H39.66a23.9,23.9,0,0,0-23.87,23.871V373.873a5,5,0,0,0,5,5H491.21a5,5,0,0,0,5-5V229.864A23.892,23.892,0,0,0,472.351,205.993ZM338.174,148a16.946,16.946,0,0,1,17.347-3.995l14.285,4.329a60.345,60.345,0,0,0,35.644,0l14.286-4.33a16.941,16.941,0,0,1,17.348,4c8.138,7.669,11.3,22.443,7.879,36.765L423,276.588a8.694,8.694,0,0,1-.725,1.949c-.008.016-.015.031-.022.047s-.018.03-.025.045c-.1.2-.214.388-.332.574s-.262.4-.4.585l-.059.079-.021.025c-.13.176-.274.34-.385.47-.013.015-.026.028-.04.043-.081.092-.166.181-.251.269-.047.048-.1.1-.132.133-.177.164-.351.332-.6.534a8.078,8.078,0,0,1-2.887,1.539c-.108.03-.22.054-.33.08-.092.021-.184.047-.276.065a6.934,6.934,0,0,1-1.3.125.279.279,0,0,1-.063-.016.275.275,0,0,1-.068-.019.322.322,0,0,1-.055-.044.367.367,0,0,1-.062-.05.524.524,0,0,1-.122-.3c-.052-.674-.115-1.4-.188-2.173a184.274,184.274,0,0,0-2.774-18.837c-2.313-11.87-5.99-25.086-11.33-33.747-.1-.169-.207-.324-.311-.489-.136-.213-.271-.423-.408-.63-2.729-4.164-5.668-6.754-8.846-7.807l-.112-.038c-.235-.075-.472-.148-.71-.207q-.48-.121-.971-.2c-.119-.018-.238-.03-.356-.044a10.073,10.073,0,0,0-1.209-.08h-.005a10.362,10.362,0,0,0-1.26.084c-.077.009-.154.014-.231.025a10.511,10.511,0,0,0-1.076.217c-.142.035-.282.071-.423.113q-.461.135-.914.313c-.19.074-.379.157-.567.243-.172.078-.343.164-.514.252q-.465.238-.922.521-.176.109-.351.228-.507.336-1.005.73-.184.146-.368.3-.422.354-.838.752c-.177.168-.353.339-.527.518s-.334.344-.5.526c-.275.3-.548.62-.818.95-.136.165-.27.334-.4.507-.273.351-.546.712-.814,1.092-.012.017-.022.034-.034.05-.109.155-.217.316-.325.476-.245.361-.485.724-.7,1.078-.007.012-.015.024-.021.035-.2.323-.4.658-.6,1-.118.2-.233.4-.35.608q-1.02,1.8-2,3.915c-.157.337-.314.673-.47,1.021-.135.3-.27.616-.4.93q-.351.817-.7,1.675c-.075.188-.15.372-.225.562q-1.822,4.612-3.459,10.272c-.525,1.828-.965,3.45-1.345,4.961-.492,1.961-.877,3.577-1.2,5.055-.2.87-.388,1.75-.561,2.605-.139.668-.27,1.347-.4,2.022-.008.039-.016.077-.023.116q-.207,1.055-.4,2.121-.1.545-.2,1.091c-.089.5-.178.993-.262,1.493q-.209,1.213-.4,2.424c-.02.126-.041.251-.061.377q-.242,1.553-.456,3.094c-.005.035-.011.07-.016.105-.094.669-.179,1.329-.262,1.988-.013.094-.025.188-.038.282q-.145,1.158-.268,2.28c-.011.1-.023.2-.033.292-.006.052-.013.105-.019.157-.009.078-.013.152-.021.231-.165,1.543-.31,3.068-.424,4.561a.546.546,0,0,1-.036.147s0,.008,0,.012a.465.465,0,0,1-.214.235.348.348,0,0,1-.146.034,8.4,8.4,0,0,1-7.762-6.563L330.3,184.763C326.87,170.449,330.036,155.673,338.174,148Zm-15.965,45.954,2.879,12.034h-5.757ZM207.335,148a16.939,16.939,0,0,1,17.347-3.995l14.286,4.329a60.339,60.339,0,0,0,35.642,0l14.287-4.33a16.942,16.942,0,0,1,17.348,4c8.138,7.669,11.3,22.443,7.879,36.765l-21.959,91.818a8.678,8.678,0,0,1-.442,1.348,8.931,8.931,0,0,1-2.538,3.4,8.184,8.184,0,0,1-2.91,1.548c-.081.022-.163.039-.245.06-.119.03-.239.062-.359.085a6.9,6.9,0,0,1-1.293.125.293.293,0,0,1-.081-.021.286.286,0,0,1-.048-.013.4.4,0,0,1-.083-.065c-.012-.011-.024-.017-.035-.029a.474.474,0,0,1-.066-.106c-.005-.011-.013-.019-.018-.028a.544.544,0,0,1-.04-.168c-.047-.611-.1-1.271-.168-1.962a184.111,184.111,0,0,0-2.865-19.4c-2.313-11.763-5.963-24.787-11.239-33.361-.136-.225-.274-.432-.411-.648-.093-.146-.187-.289-.279-.432-2.749-4.216-5.711-6.833-8.915-7.887l-.079-.027c-.241-.076-.482-.151-.727-.211-.317-.08-.639-.144-.962-.193-.121-.019-.242-.031-.364-.046a9.253,9.253,0,0,0-2.413,0c-.122.015-.243.027-.363.046-.324.05-.646.113-.962.193-.243.06-.484.134-.725.211l-.084.029c-3.2,1.052-6.154,3.662-8.9,7.865-.106.16-.212.324-.317.488-.127.2-.255.393-.381.6-5.276,8.569-8.926,21.589-11.241,33.352a183.942,183.942,0,0,0-2.871,19.444c-.064.686-.121,1.339-.167,1.946a.456.456,0,0,1-.02.081.421.421,0,0,1-.378.34,8.4,8.4,0,0,1-7.762-6.563L199.457,184.77C196.031,170.449,199.2,155.673,207.335,148Zm-15.964,45.954,2.878,12.035h-5.756ZM76.5,148a16.939,16.939,0,0,1,17.347-3.995l14.286,4.329a60.342,60.342,0,0,0,35.643,0l14.287-4.33A16.942,16.942,0,0,1,175.408,148c8.138,7.67,11.305,22.444,7.88,36.766L161.33,276.588c-.017.07-.041.138-.059.208a8.88,8.88,0,0,1-2.925,4.538,8.16,8.16,0,0,1-2.907,1.547c-.082.023-.166.04-.248.061-.119.029-.238.061-.358.084a6.827,6.827,0,0,1-1.293.125.289.289,0,0,1-.092-.023.262.262,0,0,1-.037-.011.466.466,0,0,1-.2-.231.55.55,0,0,1-.04-.162c0-.052-.009-.105-.013-.157q-.06-.764-.137-1.606a183.791,183.791,0,0,0-2.932-19.85c-2.315-11.691-5.947-24.585-11.182-33.1-.149-.247-.3-.476-.452-.713-.076-.117-.151-.234-.227-.35-2.758-4.239-5.73-6.868-8.947-7.921l-.059-.021c-.245-.079-.49-.154-.737-.215-.315-.08-.634-.143-.956-.192-.122-.019-.245-.031-.368-.046a10.379,10.379,0,0,0-1.2-.079h0a10.056,10.056,0,0,0-1.208.08c-.119.014-.239.026-.357.044-.327.051-.65.114-.97.2-.239.059-.476.132-.711.207l-.109.038c-3.178,1.051-6.117,3.641-8.846,7.8-.14.209-.277.423-.415.638-.1.163-.205.315-.306.482-5.319,8.626-8.988,21.775-11.3,33.611a184.3,184.3,0,0,0-2.813,19.089c-.068.73-.129,1.425-.178,2.067a.5.5,0,0,1-.039.159.408.408,0,0,1-.358.262,8.4,8.4,0,0,1-7.762-6.563L68.618,184.77C65.193,170.449,68.359,155.674,76.5,148ZM486.21,368.873H25.79V229.864a13.886,13.886,0,0,1,13.87-13.871H65.795l15.052,62.925a18.789,18.789,0,0,0,7.412,10.936c.078.056.151.118.23.172.147.1.3.188.454.284.271.175.54.354.82.514.008.005.018.009.025.014a17.885,17.885,0,0,0,4.125,1.708c.276.075.559.129.839.19.21.046.417.1.63.142a17,17,0,0,0,3.052.275,10.453,10.453,0,0,0,9.865-7.5c.021-.07.048-.138.068-.208s.03-.143.047-.213a10.233,10.233,0,0,0,.292-1.746,175.561,175.561,0,0,1,4.814-28.772c.011-.04.02-.081.03-.121.052-.2.106-.4.159-.6.746-2.864,1.546-5.615,2.391-8.171a66.292,66.292,0,0,1,5.076-11.982c2.426-4.238,4.236-5.363,4.773-5.365.4,0,1.5.621,3.026,2.666,1.815,2.428,4.239,6.865,6.825,14.684.2.607.4,1.229.594,1.855a172.736,172.736,0,0,1,6.8,35.814c.02.25.057.493.094.737a10.49,10.49,0,0,0,9.341,8.871c.31.03.623.05.94.052q.752,0,1.5-.07a18.436,18.436,0,0,0,15.564-12.7q.238-.721.416-1.464h0l.081-.338L186.1,215.994h10.53l15.053,62.925a18.784,18.784,0,0,0,5.254,9.16c.018.018.033.036.05.053.276.263.566.509.857.754.093.079.18.165.274.242.319.258.651.5.985.734.074.053.144.112.219.164a17.593,17.593,0,0,0,9.938,3.127,10.143,10.143,0,0,0,1.854-.188c.035-.007.07-.009.1-.016.152-.031.3-.076.449-.114s.333-.076.495-.126c.059-.018.113-.042.171-.061.249-.081.5-.165.738-.265l.026-.012q.431-.178.842-.394a.361.361,0,0,1,.043-.024c.266-.142.526-.293.779-.456.087-.056.167-.121.253-.181.175-.12.352-.238.519-.37.208-.162.4-.337.6-.515.039-.035.081-.066.119-.1a10.462,10.462,0,0,0,3.229-6.364c.02-.159.047-.315.06-.478.166-2.167.394-4.4.671-6.673.018-.146.033-.288.051-.434,0-.014,0-.028.005-.042a169.2,169.2,0,0,1,6.668-30.519c4.765-14.4,8.979-17.348,9.848-17.348s5.083,2.944,9.848,17.348a164.746,164.746,0,0,1,5.956,25.458l.036.225c.021.131.038.262.058.394.6,3.954,1.062,7.87,1.347,11.589.02.256.057.506.1.757.012.076.016.155.029.231.025.15.065.3.1.443.039.176.071.354.119.527.021.077.05.149.072.225.071.238.144.477.23.707.017.044.039.086.057.13.1.258.208.513.329.76.021.043.047.083.069.126.123.244.251.484.393.716.057.1.123.182.184.273.114.175.226.353.35.52s.242.3.364.448c.08.1.154.2.237.291a10.658,10.658,0,0,0,7.74,3.512q.753,0,1.5-.07A18.433,18.433,0,0,0,301.466,280.4c.161-.487.3-.982.424-1.483l15.052-62.923h10.529l14.9,62.3.148.62h0v0c.024.1.061.2.087.308a18.794,18.794,0,0,0,7.553,10.8c.22.15.45.283.677.424.2.123.391.256.594.372a17.461,17.461,0,0,0,8.668,2.33,10.127,10.127,0,0,0,1.652-.157,10.489,10.489,0,0,0,8.41-8.1,10.169,10.169,0,0,0,.217-1.394c.1-1.316.229-2.669.371-4.044.019-.179.035-.355.055-.536.04-.369.087-.751.131-1.128.048-.412.094-.824.145-1.239.093-.738.19-1.485.3-2.24.287-2.065.607-4.12.958-6.153l.009-.049q.5-2.871,1.076-5.67c.378-1.833.779-3.65,1.206-5.431.016-.065.032-.133.048-.2.368-1.528.753-3.031,1.152-4.5,0-.005,0-.01,0-.015.2-.743.409-1.479.62-2.2.022-.079.046-.153.068-.231.406-1.39.824-2.741,1.254-4.042.083-.251.165-.49.248-.734.108-.318.217-.636.326-.948.093-.267.187-.534.279-.793q.271-.755.546-1.479c.065-.173.131-.342.2-.51.207-.536.415-1.063.625-1.571.021-.052.042-.1.063-.151.744-1.791,1.5-3.415,2.267-4.839.385-.726.775-1.4,1.2-2.074.241-.4.492-.767.738-1.116,1.806-2.556,3.066-3.133,3.365-3.134.626,0,2.979,1.525,6.021,7.725a76.743,76.743,0,0,1,3.827,9.623c.511,1.545,1,3.166,1.481,4.834a174.727,174.727,0,0,1,5.913,32.832,10.493,10.493,0,0,0,9.021,9.56,10.138,10.138,0,0,0,1.347.106q.754,0,1.507-.07c.43-.039.855-.1,1.278-.174.058-.009.115-.013.173-.023a17.9,17.9,0,0,0,8.63-4.22l.1-.085a18.832,18.832,0,0,0,5.81-9.664l15.052-62.923h24.565A13.881,13.881,0,0,1,486.2,229.865V368.873Z" transform="translate(-15.79 -133.128)" fill="url(#a)"/></svg>